<svg width="96" height="96" viewBox="0 0 24 24" xmlns="http://www.w3.org/2000/svg" fill="none"><path fill-rule="evenodd" clip-rule="evenodd" d="M23.7940 11.9235C23.7940 18.5088 18.4675 23.8471 11.8970 23.8471C5.32649 23.8471 0 18.5088 0 11.9235C0 5.33832 5.32649 0 11.8970 0C18.4675 0 23.7940 5.33832 23.7940 11.9235ZM8.4317 14.3297C7.2114 13.1067 6.6013 12.4953 6.6013 11.7355C6.6013 10.9756 7.2114 10.3642 8.4317 9.1412L9.4258 8.14455C10.6461 6.92162 11.2563 6.31016 12.0144 6.31016C12.7725 6.31016 13.3826 6.92162 14.6029 8.14455L15.5973 9.1412C16.8176 10.3642 17.4275 10.9756 17.4275 11.7355C17.4275 12.4953 16.8176 13.1067 15.5973 14.3297L14.6029 15.3263C13.3826 16.5492 12.7725 17.1607 12.0144 17.1607C11.2563 17.1607 10.6461 16.5492 9.4258 15.3263L8.4317 14.3297Z" fill="url(#futo_icon_gradient)"/><defs><linearGradient id="futo_icon_gradient" x1="0" y1="0" x2="24" y2="24" gradientUnits="userSpaceOnUse"><stop stop-color="#405DB1"/><stop offset="0.503553" stop-color="#4F91DC"/><stop offset="1" stop-color="#1BACC6"/></linearGradient></defs></svg>
