<svg width="182" height="48" viewBox="0 0 91 24" fill="none" xmlns="http://www.w3.org/2000/svg"><g clip-path="url(#clip0_278_425)"><path fill-rule="evenodd" clip-rule="evenodd" d="M90.9447 12.026C90.9447 18.6113 85.6182 23.9496 79.0477 23.9496C72.4772 23.9496 67.1507 18.6113 67.1507 12.026C67.1507 5.44085 72.4772 0.102484 79.0477 0.102484C85.6182 0.102484 90.9447 5.44085 90.9447 12.026ZM75.5824 14.4322C74.3621 13.2092 73.752 12.5978 73.752 11.838C73.752 11.0781 74.3621 10.4667 75.5824 9.24373L76.5765 8.24707C77.7968 7.02414 78.407 6.41268 79.1651 6.41268C79.9232 6.41268 80.5333 7.02414 81.7536 8.24707L82.748 9.24373C83.9683 10.4667 84.5782 11.0781 84.5782 11.838C84.5782 12.5978 83.9683 13.2092 82.748 14.4322L81.7536 15.4288C80.5333 16.6517 79.9232 17.2632 79.1651 17.2632C78.407 17.2632 77.7968 16.6517 76.5765 15.4288L75.5824 14.4322ZM16.8171 7.13433C17.1541 7.13433 17.4271 6.86058 17.4271 6.52286V1.93688C17.4271 1.59918 17.1541 1.32541 16.8171 1.32541H0.649319C0.312368 1.32541 0.0392151 1.59918 0.0392151 1.93688V22.1152C0.0392151 22.453 0.312368 22.7266 0.649319 22.7266H6.14026C6.47722 22.7266 6.75037 22.453 6.75037 22.1152V16.4897C6.75037 16.152 7.02351 15.8782 7.36046 15.8782H14.7427C15.0797 15.8782 15.3529 15.6046 15.3529 15.2668V10.6808C15.3529 10.3431 15.0797 10.0694 14.7427 10.0694H7.36046C7.02351 10.0694 6.75037 9.79561 6.75037 9.4579V7.74579C6.75037 7.40808 7.02351 7.13433 7.36046 7.13433H16.8171ZM30.9995 23.0935H31.091C37.6192 23.0935 41.6154 19.6082 41.6154 12.9738V1.93688C41.6154 1.59918 41.3424 1.32541 41.0053 1.32541H35.5143C35.1776 1.32541 34.9043 1.59918 34.9043 1.93688V12.3624C34.9043 14.6248 33.928 16.612 31.091 16.612H30.9995C28.1932 16.612 27.1864 14.6248 27.1864 12.3624V1.93688C27.1864 1.59918 26.9134 1.32541 26.5764 1.32541H21.0854C20.7485 1.32541 20.4753 1.59918 20.4753 1.93688V12.9738C20.4753 19.6082 24.4715 23.0935 30.9995 23.0935ZM44.665 1.93688C44.665 1.59918 44.938 1.32541 45.2751 1.32541H64.9815C65.3186 1.32541 65.5916 1.59918 65.5916 1.93688V6.61458C65.5916 6.9523 65.3186 7.22605 64.9815 7.22605H59.094C58.7568 7.22605 58.4838 7.4998 58.4838 7.83751V22.1152C58.4838 22.453 58.2108 22.7266 57.8737 22.7266H52.3829C52.0457 22.7266 51.7727 22.453 51.7727 22.1152V7.83751C51.7727 7.4998 51.4997 7.22605 51.1626 7.22605H45.2751C44.938 7.22605 44.665 6.9523 44.665 6.61458V1.93688Z" fill="url(#paint0_linear_278_425)"/></g><defs><linearGradient id="paint0_linear_278_425" x1="0.0392151" y1="0.102484" x2="89.6331" y2="28.1406" gradientUnits="userSpaceOnUse"><stop stop-color="#405DB1"/><stop offset="0.503553" stop-color="#4F91DC"/><stop offset="1" stop-color="#1BACC6"/></linearGradient><clipPath id="clip0_278_425"><rect width="91" height="24" fill="white"/></clipPath></defs></svg>
